<svg width="105" height="35" viewBox="0 0 105 35" fill="none" xmlns="http://www.w3.org/2000/svg"><rect x="1" y="0.68" width="103" height="33" rx="4" fill="black"/><path fill-rule="evenodd" clip-rule="evenodd" d="M65.57 24.66C64.16 24.66 63.13 24.00 63.01 22.98L61.38 22.98C61.48 24.83 63.08 26.01 65.45 26.01C67.98 26.01 69.58 24.81 69.58 22.89C69.58 21.39 68.67 20.55 66.47 20.05L65.30 19.77C63.92 19.45 63.35 19.02 63.35 18.30C63.35 17.39 64.24 16.76 65.53 16.76C66.81 16.76 67.70 17.38 67.79 18.40H69.41C69.35 16.63 67.81 15.42 65.55 15.42C63.27 15.42 61.66 16.63 61.66 18.40C61.66 19.83 62.57 20.71 64.53 21.16L65.92 21.48C67.30 21.81 67.89 22.29 67.89 23.08C67.89 24.00 66.92 24.66 65.57 24.66ZM37.70 23.07H33.63L32.65 25.84H30.92L34.78 15.59H36.57L40.43 25.84H38.68L37.70 23.07ZM34.05 21.79H37.28L35.69 17.29H35.64L34.05 21.79ZM45.52 25.91C47.47 25.91 48.77 24.42 48.77 22.10C48.77 19.79 47.46 18.29 45.49 18.29C44.47 18.26 43.52 18.76 43.01 19.61H42.98V18.37H41.43V28.31H43.03V24.61H43.06C43.55 25.46 44.51 25.96 45.52 25.91ZM47.12 22.10C47.12 20.59 46.31 19.59 45.06 19.59C43.84 19.59 43.02 20.61 43.02 22.10C43.02 23.61 43.84 24.61 45.06 24.61C46.31 24.61 47.12 23.63 47.12 22.10ZM54.09 25.91C56.05 25.91 57.35 24.42 57.35 22.10C57.35 19.79 56.04 18.29 54.06 18.29C53.05 18.26 52.09 18.76 51.58 19.61H51.55V18.37H50.00V28.31H51.60V24.61H51.64C52.13 25.46 53.08 25.96 54.09 25.91ZM55.70 22.10C55.70 20.59 54.89 19.59 53.64 19.59C52.42 19.59 51.60 20.61 51.60 22.10C51.60 23.61 52.42 24.61 53.64 24.61C54.89 24.61 55.70 23.63 55.70 22.10ZM73.03 16.60V18.37H74.51V19.58H73.03V23.70C73.03 24.34 73.33 24.64 73.98 24.64C74.15 24.63 74.33 24.62 74.50 24.60V25.81C74.21 25.86 73.91 25.88 73.62 25.88C72.04 25.88 71.42 25.31 71.42 23.86V19.58H70.29V18.37H71.42V16.60H73.03ZM79.07 18.27C76.81 18.27 75.37 19.75 75.37 22.10C75.37 24.46 76.80 25.93 79.07 25.93C81.33 25.93 82.76 24.46 82.76 22.10C82.76 19.75 81.33 18.27 79.07 18.27ZM81.13 22.10C81.13 20.49 80.36 19.54 79.07 19.54C77.77 19.54 77.00 20.50 77.00 22.10C77.00 23.72 77.77 24.66 79.07 24.66C80.36 24.66 81.13 23.72 81.13 22.10H81.13ZM85.61 18.37H84.08L84.08 25.84H85.68V21.41C85.63 20.96 85.78 20.51 86.10 20.18C86.42 19.85 86.88 19.67 87.35 19.69C87.59 19.68 87.83 19.71 88.07 19.78V18.35C87.89 18.31 87.70 18.29 87.52 18.29C86.64 18.26 85.86 18.82 85.64 19.64H85.61V18.37ZM95.44 23.64C95.23 25.00 93.85 25.93 92.09 25.93C89.82 25.93 88.41 24.47 88.41 22.14C88.41 19.79 89.83 18.27 92.02 18.27C94.18 18.27 95.53 19.69 95.53 21.96V22.48H90.03V22.58C89.98 23.13 90.18 23.68 90.58 24.09C90.98 24.49 91.54 24.71 92.12 24.69C92.90 24.76 93.63 24.33 93.92 23.64L95.44 23.64ZM93.93 21.41H90.03C90.03 20.91 90.24 20.42 90.61 20.07C90.99 19.71 91.49 19.51 92.02 19.52C92.54 19.51 93.04 19.70 93.41 20.06C93.77 20.42 93.96 20.91 93.93 21.41Z" fill="white"/><path fill-rule="evenodd" clip-rule="evenodd" d="M52.15 7.64H52.92V12.80H52.15V7.64ZM35.66 8.55C35.19 8.08 34.53 7.83 33.85 7.88H31.99V12.80H33.85C35.38 12.80 36.27 11.90 36.27 10.33C36.35 9.68 36.13 9.03 35.66 8.55ZM33.76 12.11H32.79V8.58H33.76C34.24 8.55 34.71 8.73 35.04 9.07C35.37 9.41 35.52 9.88 35.45 10.34C35.52 10.80 35.37 11.26 35.05 11.61C34.72 11.95 34.24 12.13 33.76 12.11ZM37.17 10.94C37.10 10.28 37.43 9.63 38.03 9.28C38.62 8.93 39.37 8.93 39.96 9.28C40.55 9.63 40.89 10.28 40.82 10.94C40.89 11.61 40.56 12.26 39.96 12.61C39.37 12.96 38.62 12.96 38.02 12.61C37.43 12.26 37.10 11.61 37.17 10.94ZM39.00 9.67C39.66 9.67 40.03 10.14 40.03 10.94H40.03C40.03 11.75 39.66 12.22 39.00 12.22C38.33 12.22 37.96 11.75 37.96 10.94C37.96 10.14 38.33 9.67 39.00 9.67ZM45.68 12.80H44.89L44.09 10.07H44.03L43.23 12.80H42.44L41.37 9.09H42.15L42.84 11.92H42.90L43.70 9.09H44.43L45.23 11.92H45.29L45.98 9.09H46.75L45.68 12.80ZM48.38 9.09H47.64L47.64 12.80H48.41V10.63C48.38 10.38 48.47 10.14 48.65 9.95C48.82 9.77 49.08 9.68 49.33 9.69C49.90 9.69 50.17 9.98 50.17 10.58V12.80H50.94V10.40C50.99 10.03 50.87 9.67 50.61 9.40C50.35 9.13 49.98 8.99 49.59 9.02C49.10 8.98 48.64 9.24 48.44 9.68H48.38V9.09ZM54.84 9.28C54.25 9.63 53.92 10.28 53.98 10.94C53.91 11.61 54.25 12.26 54.84 12.61C55.43 12.96 56.19 12.96 56.78 12.61C57.37 12.26 57.71 11.61 57.64 10.94C57.70 10.28 57.37 9.63 56.78 9.28C56.19 8.93 55.44 8.93 54.84 9.28ZM56.85 10.94C56.85 10.14 56.47 9.67 55.81 9.67C55.15 9.67 54.77 10.14 54.77 10.94C54.77 11.75 55.15 12.22 55.81 12.22C56.47 12.22 56.85 11.75 56.85 10.94ZM59.89 10.64C58.96 10.70 58.44 11.08 58.44 11.75C58.45 12.07 58.59 12.37 58.83 12.58C59.08 12.79 59.41 12.90 59.74 12.86C60.21 12.88 60.65 12.66 60.9 12.28H60.96V12.80H61.70V10.26C61.70 9.48 61.15 9.02 60.18 9.02C59.30 9.02 58.67 9.42 58.59 10.06H59.33C59.42 9.80 59.71 9.65 60.14 9.65C60.66 9.65 60.94 9.87 60.94 10.26V10.58L59.89 10.64ZM60.94 11.43V11.12L59.99 11.18C59.46 11.22 59.21 11.39 59.21 11.72C59.21 12.05 59.52 12.25 59.93 12.25C60.18 12.27 60.42 12.20 60.61 12.04C60.80 11.89 60.92 11.67 60.94 11.43ZM64.31 9.03C63.33 9.03 62.70 9.77 62.70 10.94C62.70 12.12 63.33 12.86 64.31 12.86C64.81 12.88 65.28 12.63 65.53 12.22H65.59V12.80H66.32V7.64H65.56V9.68H65.50C65.27 9.26 64.81 9.00 64.31 9.03ZM63.49 10.94C63.49 11.73 63.88 12.21 64.53 12.21C65.17 12.21 65.57 11.72 65.57 10.95C65.57 10.17 65.17 9.68 64.53 9.68C63.88 9.68 63.49 10.16 63.49 10.94H63.49ZM70.35 9.28C69.75 9.63 69.42 10.28 69.49 10.94C69.42 11.61 69.75 12.26 70.35 12.61C70.94 12.96 71.69 12.96 72.28 12.61C72.88 12.26 73.21 11.61 73.14 10.94C73.21 10.28 72.88 9.63 72.28 9.28C71.69 8.93 70.94 8.93 70.35 9.28ZM72.36 10.94C72.36 10.14 71.98 9.67 71.32 9.67C70.65 9.67 70.28 10.14 70.28 10.94C70.28 11.75 70.65 12.22 71.32 12.22C71.98 12.22 72.36 11.75 72.36 10.94ZM74.90 9.09H74.17V12.80H74.93V10.63C74.91 10.38 74.99 10.14 75.17 9.95C75.35 9.77 75.60 9.68 75.86 9.69C76.42 9.69 76.70 9.98 76.70 10.58V12.80H77.46V10.40C77.52 10.03 77.40 9.67 77.14 9.40C76.87 9.13 76.50 8.99 76.12 9.02C75.63 8.98 75.16 9.24 74.96 9.68H74.90V9.09ZM81.78 8.16V9.10H82.62V9.72H81.78V11.63C81.78 12.02 81.95 12.19 82.33 12.19C82.43 12.19 82.53 12.19 82.62 12.17V12.79C82.48 12.81 82.35 12.82 82.21 12.82C81.36 12.82 81.02 12.54 81.02 11.82V9.72H80.40V9.10H81.02V8.16H81.78ZM84.43 7.64H83.67L83.67 12.80H84.43V10.63C84.41 10.38 84.50 10.13 84.69 9.94C84.88 9.76 85.14 9.67 85.41 9.69C85.95 9.69 86.24 9.99 86.24 10.58V12.80H87.00V10.40C87.05 10.04 86.93 9.68 86.67 9.41C86.42 9.14 86.05 9.00 85.67 9.02C85.17 8.98 84.69 9.25 84.49 9.68H84.43V7.64ZM91.46 11.80C91.25 12.50 90.54 12.95 89.78 12.87C89.27 12.89 88.77 12.68 88.42 12.31C88.08 11.94 87.92 11.45 87.99 10.96C87.92 10.46 88.08 9.97 88.42 9.60C88.77 9.22 89.26 9.01 89.78 9.02C90.86 9.02 91.51 9.72 91.51 10.89V11.14H88.77V11.19C88.75 11.46 88.85 11.73 89.04 11.94C89.24 12.14 89.52 12.25 89.80 12.25C90.18 12.29 90.54 12.11 90.73 11.80L91.46 11.80ZM90.73 10.60H88.77C88.77 10.35 88.87 10.10 89.06 9.92C89.25 9.74 89.51 9.64 89.78 9.64C90.04 9.63 90.29 9.73 90.47 9.92C90.66 10.10 90.75 10.35 90.73 10.60Z" fill="white"/><path fill-rule="evenodd" clip-rule="evenodd" d="M21.22 7.87C21.30 8.91 20.96 9.95 20.26 10.75C19.58 11.56 18.55 12.02 17.47 12.01C17.40 11 17.76 10.00 18.46 9.24C19.16 8.47 20.15 7.98 21.22 7.87ZM24.64 14.00C23.39 14.73 22.63 16.02 22.61 17.42C22.61 19.01 23.60 20.44 25.12 21.05C24.83 21.96 24.39 22.83 23.81 23.61C23.04 24.71 22.24 25.79 20.96 25.81C20.35 25.82 19.94 25.65 19.51 25.48C19.06 25.30 18.59 25.11 17.87 25.11C17.09 25.11 16.61 25.30 16.14 25.49C15.73 25.65 15.34 25.81 14.78 25.83C13.56 25.88 12.63 24.66 11.83 23.56C10.24 21.33 9.00 17.27 10.66 14.51C11.44 13.16 12.91 12.31 14.51 12.26C15.20 12.24 15.87 12.50 16.45 12.72C16.90 12.89 17.29 13.05 17.62 13.05C17.90 13.05 18.29 12.90 18.74 12.73C19.45 12.46 20.32 12.13 21.20 12.22C22.58 12.26 23.85 12.92 24.64 14.00Z" fill="white"/><rect x="1" y="0.68" width="103" height="33" rx="4" stroke="white" stroke-miterlimit="0" stroke-linejoin="bevel"/></svg>