<svg width="69" height="69" viewBox="0 0 69 69" fill="none" xmlns="http://www.w3.org/2000/svg"><rect width="69" height="69" fill="#6E1946"/><path d="M45.00 18.05L38.98 18.05C39.00 17.04 39.00 16.03 38.97 15.02L42.00 15.00L42.04 12.06C40.06 12.03 38.04 12.05 36.07 12.05C36.02 14.97 36.07 18.07 36.07 21.00L39.01 21.00L39.01 23.99L42.05 23.98L42.05 26.96C43.00 26.94 44.00 26.95 44.96 26.95L44.97 29.99L47.99 29.99C47.98 30.98 47.98 31.97 47.99 32.95L50.97 32.97C51.00 32.00 50.98 30.96 50.97 29.98C51.95 30.00 52.92 30.00 53.89 29.98L53.90 26.97L56.91 26.98L56.91 23.96L58.38 23.97C58.31 25.94 58.35 28.10 58.37 30.08C57.90 30.07 57.41 30.07 56.94 30.06L56.94 33.00C55.93 33.00 54.94 32.99 53.94 33.04C53.96 34.01 53.92 35.04 53.91 36.02C54.91 36.03 55.93 36.01 56.93 36.01L56.93 38.93C57.40 38.93 57.88 38.94 58.34 38.94L58.34 45.08L56.88 45.07C56.93 44.11 56.91 42.99 56.91 42.03C55.90 42.01 54.86 42.03 53.85 42.02L53.87 39.05H50.93L50.93 36.06C49.94 36.05 48.95 36.05 47.97 36.07L47.95 39.04C46.95 39.05 45.95 39.06 44.94 39.08L44.95 42.02C43.95 42.02 42.96 42.02 41.96 42.04C41.98 43.03 41.97 44.06 41.97 45.05C41.02 45.04 39.90 45.04 38.96 45.09C38.97 46.06 38.95 47.04 38.95 48.00C37.98 48.00 37.01 48.01 36.04 48.04L36.01 57.00L41.95 57.00C41.94 56.01 41.94 55.02 41.96 54.03C40.99 53.99 39.94 54.01 38.96 54.01C38.98 53.00 38.98 51.98 38.98 50.96L44.95 50.95C44.96 53.82 45.04 57.08 44.95 59.92L44.82 59.98L24.03 60L24.04 50.97C26.00 50.94 28.02 50.95 29.98 50.95L29.99 54.01C28.99 54.01 27.98 54.02 26.98 54.04L26.96 57.01L32.96 57.00L32.96 48.03C32.01 47.99 30.92 48.02 29.96 48.02C29.98 47.03 29.98 46.04 29.95 45.05C28.97 45.04 27.97 45.05 26.98 45.04L27.00 42.03C26.03 42.01 25.01 42.02 24.03 42.02L24.05 39.09C23.16 39.03 21.93 39.06 21.01 39.05L21.04 36.07L18.08 36.08L18.09 39.05L15.10 39.08L15.10 42.02C14.11 42.02 13.11 42.02 12.11 42.05C12.13 43.06 12.13 44.08 12.12 45.09L10.63 45.09C10.61 43.04 10.61 40.99 10.63 38.94L12.03 38.96C12.05 37.98 12.05 37.00 12.04 36.02L15.04 36.02L15.05 33.02L12.07 33.04L12.08 30.08L10.64 30.08C10.70 28.21 10.68 25.85 10.63 23.99L12.15 23.99L12.15 26.99L15.12 26.99L15.13 29.99C16.08 30.02 17.16 30 18.12 30.00L18.12 32.95C19.09 32.96 20.06 32.96 21.03 32.95C21.05 31.98 21.03 30.97 21.04 30.00L24.05 29.99L24.05 26.95L27.01 26.97C27.04 25.99 27.02 24.97 27.02 23.98C28.01 23.99 29.02 23.98 30.02 23.98C30.04 22.99 30.06 21.99 30.06 20.99L32.97 21.00C33.08 18.21 32.99 14.89 32.99 12.05C31.03 12.02 29.01 12.05 27.04 12.05L27.05 15.00L30.05 15.01L30.05 18.05L24.05 18.05L24.05 9.02L45.01 9L45.00 18.05ZM33.02 24.04C33.02 25.03 33.03 26.03 33.02 27.01C32.09 27.02 31.02 27.01 30.10 27.05C30.09 28.02 30.11 29.06 30.07 30.02L27.11 30.03L27.10 32.99C26.12 33.00 25.09 32.99 24.11 33.02L24.11 36.02L27.07 36.03L27.05 38.95L30.06 38.98L30.04 41.99L33.02 42C33.02 42.99 33.02 43.99 33.01 44.98C33.98 44.99 34.95 44.99 35.92 44.99C35.93 43.99 35.94 42.99 35.93 42.00C36.92 42.00 37.97 42.01 38.95 41.99L38.95 38.98L41.91 38.98L41.91 36.01L44.90 36.01C44.90 35.02 44.92 34.00 44.89 33.02C43.92 33.00 42.94 32.99 41.97 33.00L41.98 30.02L38.97 30.02C38.97 29.02 38.97 28.00 38.99 27.01C37.99 27.02 36.97 27.05 35.97 27.02L35.99 24.05C35.01 24.04 34.01 24.03 33.02 24.04Z" fill="#FAC39B"/><path d="M33.00 29.99L36.02 30.00C35.99 30.99 35.98 31.99 36.00 32.98L39.01 32.98L39.01 36.03L36.01 36.04C35.99 37.03 35.99 38.05 35.99 39.04C34.98 39.06 33.96 39.06 32.96 39.06L32.97 36.04C31.98 36.02 30.91 36.03 29.91 36.03L29.92 32.99L32.96 32.99C32.96 32.47 32.91 30.42 33.00 29.99Z" fill="#FAC39B"/><path d="M18.09 18.03L21.13 18.03L21.11 21.05C22.11 21.05 23.12 21.04 24.12 21.05C24.11 22.04 24.12 23.05 24.12 24.05L21.11 24.04L21.11 27.07L18.07 27.06L18.09 24.06C17.09 24.04 16.06 24.05 15.05 24.04C15.08 23.04 15.09 22.04 15.08 21.04C16.08 21.02 17.09 21.03 18.09 21.05L18.09 18.03Z" fill="#FAC39B"/><path d="M47.92 18.03C48.89 18.05 49.96 18.02 50.95 18.02C50.95 19.03 50.96 20.03 50.97 21.03C51.95 21.02 52.94 21.02 53.92 21.02C53.91 22.02 53.92 23.03 53.93 24.03L50.99 24.04L50.99 27.06C49.96 27.06 48.93 27.05 47.90 27.03L47.91 24.04L44.93 24.03L44.94 21.02L47.91 21.03C47.90 20.03 47.91 19.03 47.92 18.03Z" fill="#FAC39B"/><path d="M47.93 41.97L50.96 41.97C50.95 42.98 50.96 43.99 50.97 44.99C51.93 45.00 52.93 44.99 53.89 44.98C53.89 45.99 53.89 46.99 53.88 48.00L50.93 48.01C50.93 49.00 50.95 50.03 50.91 51.02L47.89 51.03C47.91 50.05 47.89 49.00 47.89 48.01L44.88 48.01C44.90 47.02 44.89 45.98 44.89 44.98C45.89 45.00 46.89 45.00 47.89 44.99C47.88 44.37 47.84 42.51 47.93 41.97Z" fill="#FAC39B"/><path d="M18.02 41.97L21.08 41.98L21.05 45.00C22.00 44.98 23.14 44.96 24.07 45.01C24.07 46.01 24.07 47.00 24.06 48.00L21.04 48.01L21.04 50.90L21.02 50.94C20.84 51.10 18.50 51.03 18.08 51.03C18.09 50.03 18.08 49.00 18.08 48.00L15.04 48.00L15.05 45.02L18.02 45.00C18.04 44.02 18.02 42.96 18.02 41.97Z" fill="#FAC39B"/></svg>